# xmcd CD database file
#
# Track frame offsets:
#	150
#	11594
#	22731
#	34013
#	46120
#	58902
#	71332
#	86786
#	99845
#	113155
#	130899
#	144841
#	155808
#	166465
#	187255
#	204737
#
# Disc length: 2968 seconds
#
# Revision: 0
# Processed by: cddbd v1.5.1PL0 Copyright (c) Steve Scherf et al.
# Submitted via: CDex 1.51
#
DISCID=d60b9610
DTITLE=Various Artist - Jazz Singing 2 (The Jazz Vocal Collection)
DYEAR=1900
DGENRE=Jazz
TTITLE0=Sarah Vaughan - I feel pretty
TTITLE1=Gabrielle Goodman - In love in vain
TTITLE2=Oscar Peterson - I hear music
TTITLE3=Anita O'Day - Ain't this a wonderful day
TTITLE4=The Blue Stars - Lullaby of birdland
TTITLE5=Blossom Dearie - Once upon a summertime
TTITLE6=Chet Baker - Everything depends on you
TTITLE7=Gloria Lynne - I'm gonna laugh you right out of my life
TTITLE8=Fred Astaire - No strings
TTITLE9=Bing Crosby - The song is you
TTITLE10=Mel Tormé - All I need is the girl
TTITLE11=Georgia Gibbs - 'Deed I do
TTITLE12=Patti Page - Autumn leaves
TTITLE13=Tom Waits - Little man
TTITLE14=Helen Merrill - Spring will be a little late this year
TTITLE15=Dinah Washington - I'll close my eyes
EXTD=
EXTT0=
EXTT1=
EXTT2=
EXTT3=
EXTT4=
EXTT5=
EXTT6=
EXTT7=
EXTT8=
EXTT9=
EXTT10=
EXTT11=
EXTT12=
EXTT13=
EXTT14=
EXTT15=
PLAYORDER=
